<svg id="Layer_1" data-name="Layer 1" xmlns="http://www.w3.org/2000/svg" viewBox="0 0 128 128"><defs><style>.cls-1{fill:#fff700;}.cls-2,.cls-3{fill:#fff;}.cls-2,.cls-4{stroke:#000;stroke-linecap:round;stroke-linejoin:round;stroke-width:5px;}.cls-4{fill:none;}</style></defs><title>Icons</title><circle class="cls-1" cx="64.08" cy="64" r="59.02"/><path class="cls-2" d="M88.78,94.55H36l-2-73.64c0-3.9,5.1-7.06,9-7.06a150.22,150.22,0,0,1,40.63,0,7.06,7.06,0,0,1,7,7.06Z"/><path class="cls-2" d="M36,94.55H88.78a0,0,0,0,1,0,0v0a10.06,10.06,0,0,1-10.06,10.06H46.05A10.06,10.06,0,0,1,36,94.55v0A0,0,0,0,1,36,94.55Z"/><polyline class="cls-3" points="65.28 64.26 58.78 71.51 65.59 74.08 56.46 82.92"/><path d="M67.67,66.4l-7,6.78-1-4,6.81,2.58.3.11a2.31,2.31,0,0,1,1.34,3,2.23,2.23,0,0,1-.79,1L57,83.46a.75.75,0,0,1-1.06-.16.78.78,0,0,1,0-.93l7.92-10.08.85,4.13-6.8-2.57a2.5,2.5,0,0,1-1.45-3.22A2.82,2.82,0,0,1,56.8,70l.12-.15,6-7.72A3.22,3.22,0,1,1,68,66.05,3.52,3.52,0,0,1,67.67,66.4Z"/><path class="cls-4" d="M62.39,52.61h0A13.72,13.72,0,0,1,76.1,66.33V94.55a0,0,0,0,1,0,0H48.67a0,0,0,0,1,0,0V66.33A13.72,13.72,0,0,1,62.39,52.61Z"/><path class="cls-2" d="M34.05,23.61a217.7,217.7,0,0,1,56.68,0"/><line class="cls-2" x1="50.91" y1="104.61" x2="50.91" y2="113.53"/><polyline class="cls-2" points="72.26 104.61 72.26 112.88 72.26 117.57"/><line class="cls-2" x1="77.65" y1="112.88" x2="72.26" y2="112.88"/></svg>