<?xml version="1.0" encoding="UTF-8"?>
<svg width="24px" height="24px" viewBox="0 0 24 24" version="1.1" xmlns="http://www.w3.org/2000/svg" xmlns:xlink="http://www.w3.org/1999/xlink">
    <!-- Generator: Sketch 51.1 (57501) - http://www.bohemiancoding.com/sketch -->
    <title>gym</title>
    <desc>Created with Sketch.</desc>
    <defs></defs>
    <g id="Page-1" stroke="none" stroke-width="1" fill="none" fill-rule="evenodd">
        <g id="gym" fill-rule="nonzero">
            <path d="M24,12 C24,18.627417 18.627417,24 12,24 C5.372583,24 8.11624501e-16,18.627417 0,12 C-8.11624501e-16,5.372583 5.372583,1.21743675e-15 12,0 C15.1825979,-1.21847946e-15 18.2348448,1.26428208 20.4852814,3.51471863 C22.7357179,5.76515517 24,8.81740212 24,12" id="Fill-1" fill="#FFF792"></path>
            <rect id="Rectangle-path" fill="#000000" transform="translate(12.000563, 12.000000) rotate(-45.000000) translate(-12.000563, -12.000000) " x="6.00056275" y="11" width="12" height="2"></rect>
            <rect id="Rectangle-path" stroke="#000000" stroke-width="2" fill="#FFFFFF" transform="translate(16.605382, 7.400563) rotate(45.000000) translate(-16.605382, -7.400563) " x="12.6053824" y="5.90056275" width="8" height="3"></rect>
            <rect id="Rectangle-path" stroke="#000000" stroke-width="2" fill="#FFFFFF" transform="translate(18.723515, 5.280563) rotate(45.000000) translate(-18.723515, -5.280563) " x="16.7235151" y="3.78056275" width="4" height="3"></rect>
            <rect id="Rectangle-path" stroke="#000000" stroke-width="2" fill="#FFFFFF" transform="translate(7.394618, 16.600563) rotate(45.000000) translate(-7.394618, -16.600563) " x="3.39461761" y="15.1005627" width="8" height="3"></rect>
            <rect id="Rectangle-path" stroke="#000000" stroke-width="2" fill="#FFFFFF" transform="translate(5.276485, 18.720563) rotate(45.000000) translate(-5.276485, -18.720563) " x="3.27648486" y="17.2205627" width="4" height="3"></rect>
        </g>
    </g>
</svg>