<?xml version="1.0" encoding="UTF-8"?>
<svg width="24px" height="24px" viewBox="0 0 24 24" version="1.1" xmlns="http://www.w3.org/2000/svg" xmlns:xlink="http://www.w3.org/1999/xlink">
    <!-- Generator: Sketch 51.1 (57501) - http://www.bohemiancoding.com/sketch -->
    <title>Group</title>
    <desc>Created with Sketch.</desc>
    <defs></defs>
    <g id="Symbols" stroke="none" stroke-width="1" fill="none" fill-rule="evenodd">
        <g id="icons/sofa-(single-seater)">
            <g id="Group">
                <g id="Page-1" fill="#FFF792">
                    <g id="Group-3">
                        <path d="M24,12.0002 C24,18.6272 18.627,24.0002 12,24.0002 C5.373,24.0002 0,18.6272 0,12.0002 C0,5.3722 5.373,0.0002 12,0.0002 C18.627,0.0002 24,5.3722 24,12.0002" id="Fill-1"></path>
                    </g>
                </g>
                <g id="elevator" transform="translate(4.000000, 2.000000)" fill-rule="nonzero">
                    <rect id="Rectangle" fill="#FFFFFF" x="1" y="1" width="15" height="19"></rect>
                    <path d="M17,0.615234375 C17,0.275413523 16.7770462,0 16.5019531,0 L0.498046875,0 C0.222953805,0 0,0.275413523 0,0.615234375 L0,20.3847656 C0,20.7245865 0.222953805,21 0.498046875,21 L16.5019531,21 C16.7770462,21 17,20.7245865 17,20.3847656 L17,0.615234375 Z M10.0273438,6.15234375 L10.0273438,19.7695313 L7.00585937,19.7695313 L7.00585937,6.15234375 L10.0273438,6.15234375 Z M6.00976562,19.7695313 L2.98828125,19.7695313 L2.98828125,6.15234375 L6.00976562,6.15234375 L6.00976562,19.7695313 Z M16.0039062,19.7695313 L11.0234375,19.7695313 L11.0234375,5.53710938 C11.0234375,5.19728852 10.8004837,4.921875 10.5253906,4.921875 L2.49023437,4.921875 C2.2151413,4.921875 1.9921875,5.19728852 1.9921875,5.53710938 L1.9921875,19.7695313 L0.99609375,19.7695313 L0.99609375,1.23046875 L16.0039062,1.23046875 L16.0039062,19.7695313 Z" id="Shape" stroke="#000000" stroke-width="0.6" fill="#000000"></path>
                    <path d="M12.3333333,14 L13.6666667,14 C13.8507812,14 14,13.7761719 14,13.5 L14,9.5 C14,9.22382813 13.8507812,9 13.6666667,9 L12.3333333,9 C12.1492188,9 12,9.22382813 12,9.5 L12,13.5 C12,13.7761719 12.1492188,14 12.3333333,14 Z M12.6666667,13 L12.6666667,12 L13.3333333,12 L13.3333333,13 L12.6666667,13 Z M13.3333333,10 L13.3333333,11 L12.6666667,11 L12.6666667,10 L13.3333333,10 Z" id="Shape" fill="#000000"></path>
                </g>
            </g>
        </g>
    </g>
</svg>