<svg width="26" height="25" viewBox="0 0 26 25" fill="none" xmlns="http://www.w3.org/2000/svg">
<path d="M7.52177 10.8076L1.08594 10.8076L1.08594 23.3439L7.52177 23.3439L7.52177 10.8076Z" fill="black"/>
<path d="M7.25186 23.9422L0.47656 23.9422L0.476561 23.331L0.476562 10.2546L1.08478 10.2546L7.8318 10.2546L7.8318 11.2922C9.2622 10.3088 10.4822 9.04759 11.4199 7.58293C12.3576 6.11827 12.994 4.47979 13.2917 2.76409C13.5463 1.59858 13.7301 0.845264 14.3949 0.617847C15.0597 0.390431 15.6114 0.845264 16.2055 1.34274C18.4403 3.10521 17.7331 5.36516 17.0259 7.35505C16.69 8.22612 16.4758 9.13973 16.3894 10.0698L22.4716 10.0698C23.0528 10.0399 23.6249 10.2241 24.0806 10.5878C24.5363 10.9516 24.8443 11.4699 24.9469 12.0455C25.0442 12.5413 24.9677 13.0557 24.7305 13.5013C24.4933 13.9469 24.11 14.2963 23.6456 14.4902C23.8648 16.1807 23.6773 17.8993 23.0989 19.5019C22.5206 21.1045 21.5681 22.5443 20.3216 23.7006L20.1943 23.8143L19.968 23.8143C17.0467 23.9686 14.1195 23.9686 11.1982 23.8143C10.0512 23.387 8.93974 22.8689 7.87423 22.265L7.87423 23.8569L7.25186 23.9422ZM1.46669 22.8762L6.79923 22.8762L6.79923 21.4549L6.79923 11.2496L1.46669 11.2496L1.46669 22.8762ZM7.88838 21.0853C9.03157 21.7443 10.2232 22.3145 11.4528 22.7909C11.7923 22.8762 14.1686 22.9189 19.7416 22.7909C20.8566 21.6997 21.6952 20.356 22.1874 18.8723C22.6796 17.3886 22.811 15.808 22.5706 14.2628L22.5706 13.8648L22.9949 13.6516C23.7304 13.3816 24.0699 12.8841 23.9568 12.2303C23.8849 11.9097 23.7047 11.624 23.4468 11.4218C23.1889 11.2197 22.8693 11.1136 22.5423 11.1216L15.4699 11.1216L15.3709 10.5531C15.3605 9.33511 15.5912 8.1272 16.0499 6.99972C16.6864 5.09511 17.238 3.44634 15.5548 2.01077C14.9607 1.49909 14.7627 1.48487 14.7486 1.48487C14.5708 1.9435 14.4428 2.42003 14.3667 2.90622C14.0147 4.86801 13.2561 6.73348 12.14 8.38147C11.0239 10.0295 9.57536 11.4231 7.88838 12.4719L7.88838 21.0853Z" fill="black" stroke="black" stroke-width="0.307042"/>
</svg>
