<?xml version="1.0" encoding="UTF-8"?>
<svg width="24px" height="24px" viewBox="0 0 24 24" version="1.1" xmlns="http://www.w3.org/2000/svg" xmlns:xlink="http://www.w3.org/1999/xlink">
    <!-- Generator: Sketch 51.1 (57501) - http://www.bohemiancoding.com/sketch -->
    <title>Group 9</title>
    <desc>Created with Sketch.</desc>
    <defs></defs>
    <g id="Symbols" stroke="none" stroke-width="1" fill="none" fill-rule="evenodd">
        <g id="Group-9">
            <path d="M24,12 C24,18.627 18.627,24 12,24 C5.373,24 0,18.627 0,12 C0,5.372 5.373,0 12,0 C18.627,0 24,5.372 24,12" id="Fill-1" fill="#FFF792"></path>
            <rect id="Rectangle-5" fill="#FFFFFF" fill-rule="nonzero" x="5.26556756" y="5.63476562" width="13.5882353" height="4.0122932"></rect>
            <rect id="Rectangle-7" fill="#FFFFFF" fill-rule="nonzero" x="3" y="16" width="19" height="6"></rect>
            <rect id="Rectangle-6" fill="#FFFFFF" fill-rule="nonzero" x="10.6470588" y="1" width="3.45882353" height="3.70588235"></rect>
            <g id="stove-(3)" transform="translate(2.000000, 1.000000)" fill="#000000" fill-rule="nonzero" stroke="#000000">
                <path d="M2.80748721,8.64705882 L16.9572193,8.64705882 C17.1432701,8.64705882 17.2941176,8.4981452 17.2941176,8.31447964 L17.2941176,5.98642534 C17.2937887,5.89759681 17.2572694,5.8125033 17.1931139,5.75030709 L15.4944749,4.08741116 C15.4316355,4.02602694 15.3469174,3.99127499 15.2585802,3.99095023 L11.9037435,3.99095023 L11.9037435,0.332579186 C11.9037435,0.148913619 11.752896,0 11.5668451,0 L8.19786132,0 C8.0118105,0 7.86096294,0.148913619 7.86096294,0.332579186 L7.86096294,3.99095023 L4.49197912,3.99095023 C4.40117447,3.99078784 4.31431786,4.02667651 4.25082043,4.09065905 L2.56632852,5.79512737 C2.50480506,5.85748597 2.47042433,5.94095553 2.47058882,6.02799774 L2.47058882,8.31447964 C2.47058882,8.4981452 2.62143638,8.64705882 2.80748721,8.64705882 Z M8.53475971,0.665158371 L11.2299468,0.665158371 L11.2299468,3.99095023 L8.53475971,3.99095023 L8.53475971,0.665158371 Z M3.14438559,6.1634328 L4.63410812,4.6561086 L15.1197413,4.6561086 L16.6203209,6.12510828 L16.6203209,7.98190045 L3.14438559,7.98190045 L3.14438559,6.1634328 Z" id="Shape" stroke-width="0.6"></path>
                <path d="M19.95,13.6832579 L16.8,13.6832579 L16.8,12.6855204 C16.8,12.5018548 16.6432861,12.3529412 16.45,12.3529412 L11.55,12.3529412 C11.3567139,12.3529412 11.2,12.5018548 11.2,12.6855204 L11.2,13.6832579 L9.8,13.6832579 L9.8,12.6855204 C9.8,12.5018548 9.64328614,12.3529412 9.45,12.3529412 L4.55,12.3529412 C4.35671386,12.3529412 4.2,12.5018548 4.2,12.6855204 L4.2,13.6832579 L1.05,13.6832579 C0.470141612,13.6832579 0,14.1299988 0,14.6809955 C0,15.2319921 0.470141612,15.678733 1.05,15.678733 L1.05,20.0022624 C1.05,20.5532591 1.52014161,21 2.1,21 L18.9,21 C19.4798584,21 19.95,20.5532591 19.95,20.0022624 L19.95,15.678733 C20.5298584,15.678733 21,15.2319921 21,14.6809955 C21,14.1299988 20.5298584,13.6832579 19.95,13.6832579 Z M11.9,13.0180995 L16.1,13.0180995 L16.1,13.6832579 L11.9,13.6832579 L11.9,13.0180995 Z M4.9,13.0180995 L9.1,13.0180995 L9.1,13.6832579 L4.9,13.6832579 L4.9,13.0180995 Z M19.25,20.0022624 C19.25,20.185928 19.0932861,20.3348416 18.9,20.3348416 L2.1,20.3348416 C1.90671386,20.3348416 1.75,20.185928 1.75,20.0022624 L1.75,15.678733 L19.25,15.678733 L19.25,20.0022624 Z M19.95,15.0135747 L1.05,15.0135747 C0.856713856,15.0135747 0.7,14.864661 0.7,14.6809955 C0.7,14.4973299 0.856713856,14.3484163 1.05,14.3484163 L19.95,14.3484163 C20.1432861,14.3484163 20.3,14.4973299 20.3,14.6809955 C20.3,14.864661 20.1432861,15.0135747 19.95,15.0135747 Z" id="Shape" stroke-width="0.5"></path>
            </g>
        </g>
    </g>
</svg>