<?xml version="1.0" encoding="UTF-8"?>
<svg width="24px" height="24px" viewBox="0 0 24 24" version="1.1" xmlns="http://www.w3.org/2000/svg" xmlns:xlink="http://www.w3.org/1999/xlink">
    <!-- Generator: Sketch 51.1 (57501) - http://www.bohemiancoding.com/sketch -->
    <title>Group 5</title>
    <desc>Created with Sketch.</desc>
    <defs></defs>
    <g id="Symbols" stroke="none" stroke-width="1" fill="none" fill-rule="evenodd">
        <g id="Group-5">
            <path d="M24,12 C24,18.627 18.627,24 12,24 C5.373,24 0,18.627 0,12 C0,5.372 5.373,0 12,0 C18.627,0 24,5.372 24,12" id="Fill-1" fill="#FFF792"></path>
            <g id="Group-2" transform="translate(2.000000, 0.000000)">
                <g id="Group-4" fill-rule="nonzero">
                    <path d="M15.9858973,2.8657612 L14.1282744,5.4426141 C13.531901,6.76597622 12.8634344,7.42765728 12.1228745,7.42765728 C11.0120347,7.42765728 7.84696691,8.03967928 6.38327206,7.00814659 C5.40747549,6.32045813 4.60257736,5.49199047 3.96857767,4.52274363 L2.92451746,2.50830078 L9.45520738,0.778808594 L15.9858973,2.8657612 Z" id="Path-5" fill="#FFFFFF"></path>
                    <path d="M14.0036908,6.94736842 C12.0332845,7.73550576 10.4093903,7.9982182 9.13200827,7.73550576 C7.85462623,7.47279331 6.78864124,7.21008087 5.93405331,6.94736842 C5.59455423,8.77297492 5.59455423,9.9731788 5.93405331,10.5479801 C6.27355239,11.1227813 6.88466988,11.9818736 7.76740579,13.125257 C5.04490273,13.6717893 3.43012791,14.364472 2.92308134,15.2033049 C2.16251149,16.4615543 1.17647059,17.0639648 1.17647059,18.1935907 C1.17647059,18.9466745 1.17647059,19.7937055 1.17647059,20.7346834 L18.5222312,20.7346834 C18.4381702,17.0470977 18.108341,15.2033049 17.5327436,15.2033049 C16.9571461,15.2033049 14.9136412,14.5106223 11.4022289,13.125257 C12.6060815,12.9854201 13.2080078,12.632624 13.2080078,12.0668688 C13.2080078,11.5011136 13.5994945,10.5097228 14.3824678,9.09269634 L14.0036908,6.94736842 Z" id="Path-4" fill="#FFFFFF"></path>
                    <path d="M12.8445984,12.6684298 C13.8726091,11.7670719 14.520805,10.457952 14.520805,9.00309312 C14.520805,8.36060547 14.3920126,7.72492146 14.1453087,7.13520351 C14.6459564,6.77473504 14.9472764,6.32756164 14.9479538,5.79625543 C14.9479538,5.79571611 14.9480385,5.7951768 14.9480385,5.79455452 C14.9480385,5.79422263 14.9479962,5.79389075 14.9479962,5.79355886 L14.9479962,5.47843416 L16.8748442,3.20178682 C17.0121466,3.0395366 17.0583374,2.82115635 16.9981327,2.61883102 C16.9379279,2.4165057 16.7792449,2.25662016 16.5744556,2.19211003 L9.71399425,0.0304608096 C9.58503248,-0.0101536032 9.44633296,-0.0101536032 9.31728651,0.0304608096 L2.45665582,2.19206855 C2.2519089,2.25657867 2.09318346,2.41646422 2.03297872,2.61878954 C1.97277398,2.82111486 2.01896482,3.03949512 2.15626719,3.20174534 L4.08311523,5.47839268 L4.08311523,5.79451303 C4.08311523,6.31868372 4.37558664,6.76112776 4.86353293,7.11919006 C4.61242582,7.71342995 4.48126247,8.35459006 4.48126247,9.00309312 C4.48126247,10.457952 5.12941602,11.7671134 6.15746911,12.6684298 C2.81331174,12.9016204 0.165234633,15.641828 0.165234633,18.9769806 L0.165234633,20.6057472 C0.165234633,20.9563421 0.455335109,21.2406015 0.813134163,21.2406015 L18.1888487,21.2406015 C18.5466477,21.2406015 18.8367482,20.9563421 18.8367482,20.6057472 L18.8367482,18.9769806 C18.8368329,15.6417865 16.1886711,12.9016204 12.8445984,12.6684298 Z M13.1148,13.9729448 L12.7326989,15.0815648 L11.3517579,13.9217515 L12.3819279,13.9217516 C12.6307064,13.9217101 12.8753358,13.9394244 13.1148,13.9729448 Z M3.7651563,3.1136299 L9.51564038,1.30174586 L15.2660821,3.1136299 L13.9139734,4.71115779 C13.6243387,4.60308778 13.3121377,4.52679574 13.0314363,4.46825954 C12.0844183,4.27095398 10.837181,4.16230317 9.51957782,4.16230317 L9.51174528,4.16230317 C8.19414211,4.16230317 6.94690482,4.27095398 5.9998868,4.46825954 C5.71918538,4.52675426 5.40689975,4.60304629 5.11730734,4.71115779 L3.7651563,3.1136299 Z M5.45808648,5.94178695 C5.95090165,5.72585434 7.34890482,5.43201176 9.51174528,5.43201176 L9.51957782,5.43201176 C11.6822913,5.43201176 13.0802944,5.72577137 13.5731943,5.94170398 C13.451557,6.08246465 13.1770369,6.28508037 12.6639418,6.47861075 C11.8443191,6.78776152 10.6982698,6.96498805 9.51957782,6.96498805 L9.51174528,6.96498805 C8.33301099,6.96498805 7.18696169,6.78772003 6.36738128,6.47861075 C5.85428617,6.28512186 5.57972377,6.08254762 5.45808648,5.94178695 Z M6.62018191,13.9216686 L7.76259013,13.9216686 L7.76259013,13.9217101 L6.37610292,15.0848421 L5.98312093,13.9602502 C6.1919323,13.934944 6.40446943,13.9216686 6.62018191,13.9216686 Z M8.95300973,19.9708099 L1.46107603,19.9708099 L1.46107603,18.9768977 C1.46107603,16.845284 2.81458189,15.017594 4.72360559,14.2755823 L5.45935663,16.3810601 C5.52891808,16.580108 5.69458696,16.7324847 5.90174715,16.7878265 C5.95801445,16.8028443 6.0153402,16.8102287 6.07228491,16.8102287 C6.22499834,16.8102287 6.37491745,16.7572931 6.49367575,16.6576446 L8.95296739,14.5944822 L8.95300973,19.9708099 Z M5.7771462,9.00305164 C5.7771462,8.55728875 5.86067922,8.11650414 6.02071714,7.70392974 C7.00922646,8.05527138 8.26391525,8.23477962 9.51170294,8.23477962 L9.51953548,8.23477962 C10.7565693,8.23477962 12.0004195,8.0583828 12.9849068,7.71301509 C13.1426584,8.12301738 13.2249636,8.56069057 13.2249636,9.00305164 C13.2249636,11.0150623 11.5543879,12.65196 9.50103375,12.65196 C7.44767955,12.65196 5.7771462,11.0151038 5.7771462,9.00305164 Z M17.5410338,19.9708514 L10.2488511,19.9708514 L10.2488511,14.6677458 L12.617878,16.6574787 C12.7367633,16.7572931 12.8867671,16.8103117 13.0395652,16.8103117 C13.096891,16.8103117 13.1546401,16.8028443 13.2112461,16.787619 C13.4188297,16.7316964 13.5844985,16.5784486 13.6533402,16.3786124 L14.3660594,14.3108036 C16.2287652,15.0741389 17.5409915,16.8781406 17.5409915,18.9769806 L17.5410338,19.9708514 Z" id="Shape" fill="#000000"></path>
                    <path d="M14.9031558,17.4939596 L13.2396069,17.4939596 C12.942512,17.4939596 12.7016935,17.7398714 12.7016935,18.0431697 C12.7016935,18.3464681 12.9425471,18.5923798 13.2396069,18.5923798 L14.9031558,18.5923798 C15.2002507,18.5923798 15.4410692,18.3464681 15.4410692,18.0431697 C15.4411043,17.7398355 15.2002507,17.4939596 14.9031558,17.4939596 Z" id="Shape" fill="#000000"></path>
                </g>
                <g id="guard-(1)"></g>
            </g>
        </g>
    </g>
</svg>