<?xml version="1.0" encoding="UTF-8"?>
<svg width="24px" height="24px" viewBox="0 0 24 24" version="1.1" xmlns="http://www.w3.org/2000/svg" xmlns:xlink="http://www.w3.org/1999/xlink">
    <!-- Generator: Sketch 51.1 (57501) - http://www.bohemiancoding.com/sketch -->
    <title>Group 2</title>
    <desc>Created with Sketch.</desc>
    <defs>
        <polygon id="path-1" points="0 0.0002 24 0.0002 24 24 0 24"></polygon>
    </defs>
    <g id="Symbols" stroke="none" stroke-width="1" fill="none" fill-rule="evenodd">
        <g id="Group-2">
            <g id="Group">
                <g id="Page-1">
                    <g id="Group-3">
                        <mask id="mask-2" fill="white">
                            <use xlink:href="#path-1"></use>
                        </mask>
                        <g id="Clip-2"></g>
                        <path d="M24,12.0002 C24,18.6272 18.627,24.0002 12,24.0002 C5.373,24.0002 0,18.6272 0,12.0002 C0,5.3722 5.373,0.0002 12,0.0002 C18.627,0.0002 24,5.3722 24,12.0002" id="Fill-1" fill="#FFF792" mask="url(#mask-2)"></path>
                    </g>
                </g>
            </g>
            <g id="pool" transform="translate(4.000000, 5.000000)" fill-rule="nonzero">
                <path d="M15.5567499,12.2328734 C14.6082783,12.0231454 13.6316343,12.1389653 12.7676799,12.5521609 C11.8473807,12.9903986 10.7361351,12.9903986 9.81583595,12.5552911 C9.80957541,12.5521609 9.80331487,12.5490306 9.79392406,12.5459003 C8.61694279,11.9918427 7.26779671,11.9918427 6.08455491,12.5584214 C5.14860438,13.0060499 4.074922,13.0029197 3.1358412,12.5552911 C2.55048084,12.2735669 1.92442698,12.1327048 1.27959149,12.1327048 C0.966564562,12.1327048 0.65040736,12.1671377 0.343640967,12.2391339 C0.105740498,12.2923485 -0.0445124298,12.530249 0.011832418,12.7681495 C0.0650469966,13.0060499 0.302947465,13.1531726 0.540847934,13.099958 C1.28272176,12.9309235 2.06215883,13.0217013 2.75707862,13.3535098 C3.34556925,13.6352341 3.97788365,13.7760962 4.61332833,13.7760962 C5.248773,13.7760962 5.8810874,13.6352341 6.47583857,13.3503796 C7.41491937,12.902751 8.49486229,12.902751 9.43394309,13.3503796 C9.44020363,13.3535098 9.44646416,13.3566401 9.45585497,13.3597704 C10.6077941,13.9044372 12.0007639,13.901307 13.152703,13.3503796 C13.8413623,13.0217013 14.6114086,12.9309235 15.3689337,13.0968277 C15.6068342,13.1500423 15.8416044,12.9997894 15.894819,12.7587587 C15.9449033,12.5208582 15.7946504,12.286088 15.5567499,12.2328734 Z" id="Shape" fill="#000000"></path>
                <rect id="Rectangle" fill="#FFFFFF" x="7" y="4" width="5" height="7"></rect>
                <path d="M15.5536196,10.1042903 C14.605148,9.89456222 13.628504,10.0103822 12.7645496,10.4235777 C12.6549902,10.4767923 12.5423005,10.5206161 12.4296108,10.5613096 L12.4296108,1.69325659 C12.4296108,0.760436327 11.6720857,0.00291115047 10.7392654,0.00291115047 C9.80644514,0.00291115047 9.04891996,0.760436327 9.04891996,1.69325659 C9.04891996,1.93741759 9.24612693,2.13462456 9.49028794,2.13462456 C9.73444894,2.13462456 9.93165591,1.93741759 9.93165591,1.69325659 C9.93165591,1.24875834 10.2947672,0.8856471 10.7392654,0.8856471 C11.1837636,0.8856471 11.5468749,1.24875834 11.5468749,1.69325659 L11.5468749,3.74045272 L6.85147089,3.74045272 L6.85147089,1.69325659 C6.85147089,0.760436327 6.09394572,0.00291115047 5.16112546,0.00291115047 C4.2283052,0.00291115047 3.47078002,0.760436327 3.47078002,1.69325659 C3.47078002,1.93741759 3.66798699,2.13462456 3.912148,2.13462456 C4.156309,2.13462456 4.35351597,1.93741759 4.35351597,1.69325659 C4.35351597,1.24875834 4.71662721,0.8856471 5.16112546,0.8856471 C5.6056237,0.8856471 5.96873494,1.24875834 5.96873494,1.69325659 L5.96873494,10.4423594 C5.96873494,10.4517502 5.97186521,10.461141 5.97186521,10.4705318 C5.06095684,10.8649457 4.0342285,10.8524246 3.1358412,10.4235777 C2.55048084,10.1418535 1.92442698,10.0009914 1.27959149,10.0009914 C0.966564562,10.0009914 0.65040736,10.0354243 0.346771236,10.1042903 C0.108870767,10.1575048 -0.0413821605,10.3954053 0.0149626874,10.6333058 C0.0681772659,10.8712062 0.306077735,11.0214592 0.540847934,10.9682446 C1.28272176,10.7992101 2.06215883,10.8899879 2.75707862,11.2217964 C3.34556925,11.5035207 3.97788365,11.6443828 4.61019806,11.6443828 C5.24564273,11.6443828 5.8810874,11.5035207 6.47270831,11.2217964 C7.4117891,10.7741679 8.49173202,10.7741679 9.43081282,11.2217964 C9.43707336,11.2249267 9.4433339,11.228057 9.4527247,11.2311872 C10.6046638,11.7758541 11.9976337,11.7727238 13.1495728,11.2217964 C13.8351018,10.8931181 14.6082783,10.8023403 15.3658035,10.9682446 C15.6037039,11.0214592 15.8384741,10.8712062 15.8916887,10.6301755 C15.9449033,10.392275 15.7946504,10.1575048 15.5536196,10.1042903 Z M11.5500052,10.7366047 C10.9583842,10.7804284 10.3573725,10.6802598 9.81896621,10.4235777 C9.81270568,10.4204475 9.80644514,10.4173172 9.79705433,10.4141869 C8.86736434,9.97594922 7.83437546,9.88517141 6.85460116,10.1449838 L6.85460116,8.21047732 L11.5500052,8.21047732 L11.5500052,10.7366047 Z M11.5500052,7.32774137 L6.85460116,7.32774137 L6.85460116,4.62318867 L11.5500052,4.62318867 L11.5500052,7.32774137 Z" id="Shape" stroke="#000000" stroke-width="0.8" fill="#000000"></path>
                <path d="M15.5567499,14.3645868 C14.6082783,14.1548588 13.6316343,14.2706787 12.7676799,14.6838743 C11.8473807,15.122112 10.7361351,15.122112 9.81583595,14.6870046 C9.80957541,14.6838743 9.8001846,14.680744 9.79392406,14.6776137 C8.61694279,14.1235561 7.26779671,14.1266863 6.08455491,14.6901348 C5.62753559,14.9061234 5.12043196,15.0219434 4.61332833,15.0219434 C4.09683389,15.0219434 3.59912106,14.9092537 3.1358412,14.6870046 C2.55048084,14.4052803 1.92442698,14.2644182 1.27959149,14.2644182 C0.966564562,14.2644182 0.65040736,14.2988512 0.346771236,14.3677171 C0.108870767,14.4209317 -0.0413821605,14.6588321 0.0149626874,14.8967326 C0.0681772659,15.1346331 0.306077735,15.284886 0.543978203,15.2285411 C1.28585203,15.0595066 2.0652891,15.1502844 2.76020889,15.482093 C3.34243898,15.7606869 3.96849285,15.9015491 4.61958886,15.9015491 C5.25503354,15.9015491 5.89360848,15.7575567 6.47896884,15.4789627 C7.41804964,15.0313342 8.49486229,15.0313342 9.43707336,15.4789627 C9.4433339,15.482093 9.4527247,15.4852232 9.45898524,15.4883535 C10.0318245,15.7575567 10.6672692,15.9015491 11.2964533,15.9015491 C11.931898,15.9015491 12.5736032,15.7544264 13.152703,15.4789627 C13.8413623,15.1502844 14.6114086,15.0595066 15.3689337,15.2254109 C15.6068342,15.2786255 15.8416044,15.1283725 15.894819,14.8873418 C15.9449033,14.6557019 15.7946504,14.4178014 15.5567499,14.3645868 Z" id="Shape" fill="#000000"></path>
            </g>
        </g>
    </g>
</svg>